<?xml version="1.0" encoding="utf-8"?>
<!-- Generator: Adobe Illustrator 25.0.1, SVG Export Plug-In . SVG Version: 6.00 Build 0)  -->
<svg version="1.1" id="Layer_1" xmlns="http://www.w3.org/2000/svg" xmlns:xlink="http://www.w3.org/1999/xlink" x="0px" y="0px"
	 viewBox="0 0 561.6 288" style="enable-background:new 0 0 561.6 288;" xml:space="preserve">
<style type="text/css">
	.st0{display:none;fill:#002046;}
	.st1{clip-path:url(#SVGID_2_);}
	.st2{fill:none;stroke:#000000;stroke-width:0.75;stroke-miterlimit:10;}
</style>
<rect y="0" class="st0" width="561.6" height="288"/>
<g>
	<defs>
		<rect id="SVGID_1_" y="0" width="561.6" height="288"/>
	</defs>
	<clipPath id="SVGID_2_">
		<use xlink:href="#SVGID_1_"  style="overflow:visible;"/>
	</clipPath>
	<g class="st1">
		<path class="st2" d="M922.54,298.44c0-1.4-1.14-2.54-2.54-2.54c-1.21,0-2.21,0.85-2.47,1.98h-22.39l-10.11-10.11h-66.05
			l-10.34-10.34h-94.82l-12.59,12.59h-0.65v0.65l-6.23,6.23h-214.3l-33.61-33.61h105.2l18.87-18.88H717.9l17.07-17.06h78.61
			l9.32,9.31c-0.62,0.98-0.5,2.29,0.35,3.14c0.99,0.99,2.6,0.99,3.59,0c0.99-0.99,0.99-2.6,0-3.59c-0.85-0.85-2.16-0.97-3.14-0.35
			l-9.65-9.64h-79.54l-17.07,17.06H570.07l-18.87,18.88H446.3v0.96l-13.91-13.91H534.3l21.57-21.57h149.16l17.6-17.6h0.43v-0.43
			l6.22-6.22h129.25c0.26,1.13,1.26,1.98,2.47,1.98c1.4,0,2.54-1.14,2.54-2.54s-1.14-2.54-2.54-2.54c-1.21,0-2.21,0.85-2.47,1.98
			h-48.96l0.2-0.2l-24.03-24.03h-58.29l-11.34-11.34H606.68l-13.25,13.24h-18.42l-30.27,30.27l0.73,0.73h-31.42l-15.58,15.57h-128.4
			l18.95-18.94h81.92c0.26,1.13,1.26,1.98,2.47,1.98c1.4,0,2.54-1.14,2.54-2.54s-1.14-2.54-2.54-2.54c-1.21,0-2.21,0.85-2.47,1.98
			h-82.39l-20.07,20.06h-40.64l32.42-32.43H527.4l38.64-38.63h171.78c0.26,1.13,1.26,1.98,2.47,1.98c1.4,0,2.54-1.14,2.54-2.54
			s-1.14-2.54-2.54-2.54c-1.21,0-2.21,0.85-2.47,1.98H565.57L553.9,166H442.47l-26.22,26.23l0.73,0.73H359.8l-50.04,50.05l0.8,0.8
			l16.83-16.83v0.66h171.56l15.58-15.57h79.08l20.97-20.98h57.06c0.26,1.13,1.26,1.98,2.47,1.98c1.4,0,2.54-1.14,2.54-2.54
			s-1.14-2.54-2.54-2.54c-1.21,0-2.21,0.85-2.47,1.98H614.1l-20.97,20.98H545.6l29.88-29.88h18.42l13.25-13.24h108.49l11.34,11.34
			h58.29l23.11,23.11h-79.57l-6.66,6.65h-89.42l-17.46,17.47l0.12,0.12h-60.01l-21.57,21.57H431.26l-4.2-4.2H259.9
			c-0.26-1.13-1.26-1.98-2.47-1.98c-1.4,0-2.54,1.14-2.54,2.54s1.14,2.54,2.54,2.54c1.21,0,2.21-0.85,2.47-1.98h166.69l53.02,53.02
			h215.23l6.88-6.88h66.94l21.12,21.11h85.82l17.64,17.64c-0.62,0.98-0.5,2.29,0.35,3.14c0.99,0.99,2.6,0.99,3.59,0
			c0.99-0.99,0.99-2.6,0-3.59c-0.85-0.85-2.16-0.97-3.14-0.35l-17.97-17.97h-85.82l-21.12-21.11h-66.28l11.46-11.46h93.89
			l10.34,10.34h66.05l10.09,10.1h22.86c0.26,1.13,1.26,1.98,2.47,1.98C921.41,300.98,922.54,299.84,922.54,298.44z M526.93,192.96
			H417.1l25.83-25.83h109.84L526.93,192.96z M704.56,226.51h-87.81l16.46-16.47h87.83L704.56,226.51z"/>
		<path class="st2" d="M-339.62,176.05h149.78l59.31,59.31H109.1l16.17,16.18h65.3l2.01,2.01c0.98-0.62,2.29-0.5,3.14,0.35
			c0.99,0.99,0.99,2.6,0,3.59s-2.6,0.99-3.59,0c-0.85-0.85-0.97-2.16-0.35-3.14l-1.68-1.68h-65.3l-16.17-16.18H-131l-59.31-59.31
			h-149.31c-0.26,1.13-1.26,1.98-2.47,1.98c-1.4,0-2.54-1.14-2.54-2.54s1.14-2.54,2.54-2.54
			C-340.88,174.07-339.87,174.92-339.62,176.05z"/>
		<path class="st2" d="M217.66,236.17h-82.97l-14.08-14.08h-239.62l-58.71-58.71h-144.52c-0.26,1.13-1.26,1.98-2.47,1.98
			c-1.4,0-2.54-1.14-2.54-2.54s1.14-2.54,2.54-2.54c1.21,0,2.21,0.85,2.47,1.98h144.99l58.71,58.71h239.62l14.08,14.08h82.97
			l11.15,11.16c0.98-0.62,2.29-0.5,3.14,0.35c0.99,0.99,0.99,2.6,0,3.59c-0.99,0.99-2.6,0.99-3.59,0c-0.85-0.85-0.97-2.16-0.35-3.14
			L217.66,236.17z"/>
		<path class="st2" d="M270.56,187.05c-0.85-0.85-0.97-2.16-0.35-3.14l-5.45-5.44h-71.55l-22.8-22.8H106.4L90,172.05H-29.06
			l-15.72,15.72h-118.85v-1.12h118.38l15.72-15.72H89.54l16.4-16.4h64.94l22.8,22.8h71.55l5.78,5.77c0.98-0.62,2.29-0.5,3.14,0.35
			c0.99,0.99,0.99,2.6,0,3.59C273.16,188.04,271.55,188.04,270.56,187.05z"/>
		<path class="st2" d="M-194.27,188c0.85,0.85,0.97,2.16,0.35,3.14l62.19,62.19H30.02l10.55,10.55v-0.36h175.16l5.01,5.01
			c0.98-0.62,2.29-0.5,3.14,0.35c0.99,0.99,0.99,2.6,0,3.59s-2.6,0.99-3.59,0c-0.85-0.85-0.97-2.16-0.35-3.14l-4.68-4.68H41.33
			l16.25,16.24h128.95c0.26-1.13,1.26-1.98,2.47-1.98c1.4,0,2.54,1.14,2.54,2.54s-1.14,2.54-2.54,2.54c-1.21,0-2.21-0.85-2.47-1.98
			H57.11l-27.56-27.55h-161.74l-62.52-62.52c-0.98,0.62-2.29,0.5-3.14-0.35c-0.99-0.99-0.99-2.6,0-3.59
			C-196.86,187.01-195.26,187.01-194.27,188z"/>
		<path class="st2" d="M361.05,28.59c0.88,0.88,2.31,0.88,3.19,0c0.76-0.76,0.86-1.92,0.31-2.79l4.16-4.16h154.61l-14.44,14.44
			H394.26c-0.23-1-1.12-1.76-2.2-1.76c-1.25,0-2.26,1.01-2.26,2.26s1.01,2.26,2.26,2.26c1.07,0,1.97-0.75,2.2-1.76H509.3l24.5-24.49
			h143.77l8.36-8.36h-1.41l-7.36,7.36H533.37L524,20.96v-0.32H368.3l-4.45,4.45c-0.87-0.55-2.04-0.45-2.79,0.31
			C360.17,26.29,360.17,27.71,361.05,28.59z"/>
		<path class="st2" d="M125.21,123.2h133.14l52.72-52.72h213l14.38-14.38h58.04l1.79-1.79c0.87,0.55,2.04,0.45,2.79-0.31
			c0.88-0.88,0.88-2.31,0-3.19c-0.88-0.88-2.31-0.88-3.19,0c-0.76,0.76-0.86,1.92-0.31,2.79l-1.5,1.5h-58.04l-14.38,14.38h-213
			l-52.72,52.72H125.21c-0.23-1-1.12-1.76-2.2-1.76c-1.25,0-2.26,1.01-2.26,2.26s1.01,2.26,2.26,2.26
			C124.08,124.96,124.98,124.21,125.21,123.2z"/>
		<path class="st2" d="M620.57,69.75h-73.75L534.3,82.27h-213l-52.19,52.19H140.65c-0.23-1-1.12-1.76-2.2-1.76
			c-1.25,0-2.26,1.01-2.26,2.26s1.01,2.26,2.26,2.26c1.07,0,1.97-0.75,2.2-1.76h128.88l52.19-52.19h213l12.52-12.52h73.75l9.91-9.92
			c0.87,0.55,2.04,0.45,2.79-0.31c0.88-0.88,0.88-2.31,0-3.19c-0.88-0.88-2.31-0.88-3.19,0c-0.76,0.76-0.86,1.92-0.31,2.79
			L620.57,69.75z"/>
		<path class="st2" d="M260.46-57.34c-1.07,0-1.97,0.75-2.2,1.76h-20.32l-8.98,8.98h-58.71l-9.19,9.19H77.61l-10.19-10.2h58.92
			l18.77-18.77h76.28l15.97-15.97c0.87,0.55,2.04,0.45,2.79-0.31c0.88-0.88,0.88-2.31,0-3.19c-0.88-0.88-2.31-0.88-3.19,0
			c-0.76,0.76-0.86,1.92-0.31,2.79l-15.68,15.68H144.7l-18.77,18.77h-59.5l-6.12-6.12h-191.32L-178.14-7.6H-326.3
			c-0.23-1-1.12-1.76-2.2-1.76c-1.25,0-2.26,1.01-2.26,2.26s1.01,2.26,2.26,2.26c1.07,0,1.97-0.75,2.2-1.76h148.58l3.73-3.73h91.17
			l19.17,19.17h53.34l-0.11,0.11L5.11,24.49H84.6l5.92,5.91h70.73L140.7,50.94H88.88L78.8,61.02h-96.44l-11.78-11.77H-45.8
			l-26.56-26.56h42.25l18.64,18.65h51.14c0.23,1,1.12,1.76,2.2,1.76c1.25,0,2.26-1.01,2.26-2.26s-1.01-2.26-2.26-2.26
			c-1.07,0-1.97,0.75-2.2,1.76h-50.72l-18.64-18.65h-70.29l-13.85-13.84h-152.5v0.59l-14.96-14.96L-282-5.81l44.48,44.49h50.83
			l-0.65,0.65l23.31,23.31h99.05l10.38,10.38H98.52c0.23,1,1.12,1.76,2.2,1.76c1.25,0,2.26-1.01,2.26-2.26s-1.01-2.26-2.26-2.26
			c-1.07,0-1.97,0.75-2.2,1.76h-152.7l-34.35-34.34H-237.1l-28.82-28.82h36.12l17.84,17.83h73.23c0.23,1,1.12,1.76,2.2,1.76
			c1.25,0,2.26-1.01,2.26-2.26s-1.01-2.26-2.26-2.26c-1.07,0-1.97,0.75-2.2,1.76h-72.82l-16.84-16.83h114.14l13.85,13.84h27.93
			l-0.65,0.65l26.9,26.91h16.38l11.78,11.77H79.2l10.1-10.09h51.82l21.36-21.36l-0.18-0.18h43.52c0.23,1,1.12,1.76,2.2,1.76
			c1.25,0,2.26-1.01,2.26-2.26s-1.01-2.26-2.26-2.26c-1.07,0-1.97,0.75-2.2,1.76H90.93l-5.53-5.53v-0.38h-0.38L69.36,7.85H-63.23
			L-82.4-11.33h-90.59l12.37-12.37v0.85h93.25L-50.6-6.07h131L95.57,9.1h70.71l8.58-8.57c0.87,0.55,2.03,0.45,2.79-0.31
			c0.88-0.88,0.88-2.31,0-3.19s-2.31-0.88-3.19,0c-0.76,0.76-0.86,1.92-0.31,2.79l-8.29,8.28H95.99L80.81-7.07h-131l-16.78-16.78
			h-93.51l29.88-29.88H59.89l5.53,5.53v0.58H66l11.2,11.2h84.28l9.19-9.19h58.71l8.98-8.98h19.9c0.23,1,1.12,1.76,2.2,1.76
			c1.25,0,2.26-1.01,2.26-2.26C262.72-56.33,261.71-57.34,260.46-57.34z M-65.97,61.63h-97.64l-22.96-22.96h97.63L-65.97,61.63z
			 M83.6,23.49H5.53L-9.11,8.85h78.05L83.6,23.49z"/>
		<path class="st2" d="M163.89,184.24c-0.76,0.76-0.86,1.92-0.31,2.79l-4.84,4.84h-63.6l-20.27,20.27h-56.9L3.39,197.57h-105.83
			l-13.98-13.98h-105.64v1h105.23l13.98,13.98H2.97l14.58,14.57h57.73l20.27-20.27h63.6l5.14-5.13c0.87,0.55,2.04,0.45,2.79-0.31
			c0.88-0.88,0.88-2.31,0-3.19C166.2,183.36,164.77,183.36,163.89,184.24z"/>
	</g>
</g>
</svg>
